<?xml version="1.0" encoding="utf-8"?>
<!-- Generator: Adobe Illustrator 22.0.1, SVG Export Plug-In . SVG Version: 6.00 Build 0)  -->
<svg version="1.1" id="Layer_1" xmlns="http://www.w3.org/2000/svg" xmlns:xlink="http://www.w3.org/1999/xlink" x="0px" y="0px"
	 viewBox="0 0 34.8 47.7" style="enable-background:new 0 0 34.8 47.7;" xml:space="preserve">
<style type="text/css">
	.st0{fill:#FEFDFD;}
	.st1{fill:none;stroke:#000000;stroke-miterlimit:10;}
</style>
<g>
	<g>
		<path d="M16,16c1.5-2.2,2.1-4.5,3-7c1.2-3.6,3.2-6.6,6.6-8.6c0.8-0.5-0.5-0.5-0.9-0.3c-2.3,1.4-4.3,3.2-5.7,5.6
			C17.1,9,16.8,12.9,14.7,16C14.3,16.5,15.8,16.3,16,16L16,16z"/>
	</g>
</g>
<g>
	<g>
		<path class="st0" d="M20.3,13.7v-2.6h-5.8v2.6c-7.9,1.4-14,8.3-14,16.6c0,9.3,7.6,16.9,16.9,16.9s16.9-7.6,16.9-16.9
			C34.3,21.9,28.2,15,20.3,13.7z"/>
	</g>
	<g>
		<path class="st1" d="M20.3,13.7v-2.6h-5.8v2.6c-7.9,1.4-14,8.3-14,16.6c0,9.3,7.6,16.9,16.9,16.9s16.9-7.6,16.9-16.9
			C34.3,21.9,28.2,15,20.3,13.7z"/>
	</g>
</g>
</svg>
