<svg id="Laag_1" data-name="Laag 1" xmlns="http://www.w3.org/2000/svg" viewBox="0 0 36 36.09"><defs><style>.cls-1{fill:#c60000;}.cls-2{fill:#efefef;}.cls-3{fill:#ffe0bd;}.cls-4{stroke:#000;stroke-miterlimit:10;stroke-width:0.25px;}</style></defs><title>goedecharacter1</title><circle class="cls-1" cx="27" cy="4" r="3.87"/><path d="M29,1.25A3.75,3.75,0,1,1,25.25,5,3.75,3.75,0,0,1,29,1.25M29,1a4,4,0,1,0,4,4,4,4,0,0,0-4-4Z" transform="translate(-2 -1)"/><rect class="cls-2" x="0.5" y="5.5" width="35" height="30.09" rx="9" ry="9"/><path d="M28.5,7A8.51,8.51,0,0,1,37,15.5V27.59a8.51,8.51,0,0,1-8.5,8.5h-17A8.51,8.51,0,0,1,3,27.59V15.5A8.51,8.51,0,0,1,11.5,7h17m0-1h-17A9.53,9.53,0,0,0,2,15.5V27.59a9.53,9.53,0,0,0,9.5,9.5h17a9.52,9.52,0,0,0,9.5-9.5V15.5A9.52,9.52,0,0,0,28.5,6Z" transform="translate(-2 -1)"/><path class="cls-3" d="M17.5,30.5a10,10,0,0,1,0-20h5a10,10,0,0,1,0,20Z" transform="translate(-2 -1)"/><path d="M22.5,11a9.5,9.5,0,0,1,0,19h-5a9.5,9.5,0,0,1,0-19h5m0-1h-5A10.54,10.54,0,0,0,7,20.5H7A10.53,10.53,0,0,0,17.5,31h5A10.52,10.52,0,0,0,33,20.5h0A10.53,10.53,0,0,0,22.5,10Z" transform="translate(-2 -1)"/><path d="M15,22.5A1.5,1.5,0,0,1,13.5,21V18.25a1.5,1.5,0,0,1,3,0V21A1.5,1.5,0,0,1,15,22.5Z" transform="translate(-2 -1)"/><path d="M15,17.25a1,1,0,0,1,1,1V21a1,1,0,0,1-2,0V18.25a1,1,0,0,1,1-1m0-1a2,2,0,0,0-2,2V21a2,2,0,0,0,4,0V18.25a2,2,0,0,0-2-2Z" transform="translate(-2 -1)"/><path d="M25,22.5A1.5,1.5,0,0,1,23.5,21V18.25a1.5,1.5,0,0,1,3,0V21A1.5,1.5,0,0,1,25,22.5Z" transform="translate(-2 -1)"/><path d="M25,17.25a1,1,0,0,1,1,1V21a1,1,0,0,1-2,0V18.25a1,1,0,0,1,1-1m0-1a2,2,0,0,0-2,2V21a2,2,0,0,0,4,0V18.25a2,2,0,0,0-2-2Z" transform="translate(-2 -1)"/><polygon class="cls-4" points="10.41 12.69 9.28 14.93 15.61 16.57 10.41 12.69"/><polygon class="cls-4" points="25.48 12.69 26.61 14.93 20.28 16.57 25.48 12.69"/></svg>