<?xml version="1.0" encoding="utf-8"?>
<!-- Generator: Adobe Illustrator 21.1.0, SVG Export Plug-In . SVG Version: 6.00 Build 0)  -->
<svg version="1.1" id="Laag_1" xmlns="http://www.w3.org/2000/svg" xmlns:xlink="http://www.w3.org/1999/xlink" x="0px" y="0px"
	 viewBox="0 0 50 50" style="enable-background:new 0 0 50 50;" xml:space="preserve">
<style type="text/css">
	.st0{fill:#999999;}
	.st1{fill:#CACCCC;}
</style>
<rect class="st0" width="50" height="50"/>
<rect x="17" y="25.7" class="st1" width="16" height="7.3"/>
<polygon class="st1" points="24.7,25 24.7,17 16.7,17 8.7,17 8.7,25 16.7,25 "/>
<polygon class="st1" points="25.3,17 25.3,25 33.3,25 41.3,25 41.3,17 33.3,17 "/>
<rect x="0.3" y="25.7" class="st1" width="16" height="7.3"/>
<rect y="17" class="st1" width="8" height="8"/>
<rect x="33.7" y="25.7" class="st1" width="16" height="7.3"/>
<rect x="42" y="17" class="st1" width="8" height="8"/>
<rect x="17" y="9" class="st1" width="16" height="7.3"/>
<polygon class="st1" points="24.7,8.3 24.7,0.3 16.7,0.3 8.7,0.3 8.7,8.3 16.7,8.3 "/>
<rect x="0.3" y="9" class="st1" width="16" height="7.3"/>
<rect y="0.3" class="st1" width="8" height="8"/>
<rect x="33.7" y="9" class="st1" width="16" height="7.3"/>
<polygon class="st1" points="41.3,8.3 41.3,0.3 33.3,0.3 25.3,0.3 25.3,8.3 33.3,8.3 "/>
<rect x="42" y="0.3" class="st1" width="8" height="8"/>
<rect x="17" y="42.3" class="st1" width="16" height="7.3"/>
<polygon class="st1" points="24.7,33.7 16.7,33.7 8.7,33.7 8.7,41.7 16.7,41.7 24.7,41.7 "/>
<rect x="0.3" y="42.3" class="st1" width="16" height="7.3"/>
<rect y="33.7" class="st1" width="8" height="8"/>
<rect x="33.7" y="42.3" class="st1" width="16" height="7.3"/>
<polygon class="st1" points="41.3,33.7 33.3,33.7 25.3,33.7 25.3,41.7 33.3,41.7 41.3,41.7 "/>
<rect x="42" y="33.7" class="st1" width="8" height="8"/>
</svg>
